<svg xmlns="http://www.w3.org/2000/svg" viewBox="0 0 1105.38 334.62"><defs><style>.cls-1{isolation:isolate;}.cls-2{fill:#7ad2f4;}.cls-3{fill:#fff;}.cls-4{fill:#010101;}.cls-5{fill:#fafa99;mix-blend-mode:multiply;}</style></defs><g class="cls-1"><g id="Layer_1" data-name="Layer 1"><path class="cls-2" d="M124.21,141.3l-6.48,26q-3.3,13-6.72,25.91t-6.79,25.88l-7,25.87-13.13-5.51h0a36.5,36.5,0,0,1,6.9-8.15A53.5,53.5,0,0,1,99,225.43a56.26,56.26,0,0,1,18-7.2,35.58,35.58,0,0,1,10.44-.54,23.83,23.83,0,0,1,5.61,1.31,19.41,19.41,0,0,1,5.39,3l1.21,1.05.78.76,1.53,1.49c1,1,2,1.9,3,2.74a21.11,21.11,0,0,0,5.48,3.75,6.28,6.28,0,0,0,4.61.22,17.16,17.16,0,0,0,5.5-3.23,47.62,47.62,0,0,0,5.48-5.37c.89-1,1.75-2,2.61-3.07s1.67-2.15,2.47-3.27c1.62-2.2,3.17-4.49,4.62-6.86.74-1.16,1.45-2.36,2.15-3.56s1.37-2.42,2-3.65c1.33-2.45,2.55-5,3.71-7.49.57-1.28,1.14-2.55,1.65-3.84s1-2.62,1.43-3.8h0a7.53,7.53,0,0,1,13.73,6.18l-.08.17,0,.06c-1.69,3.47-3.44,6.63-5.16,9.74s-3.4,6.13-5,9.14a85.16,85.16,0,0,0-4,8.83,29.08,29.08,0,0,0-1.17,4,8.35,8.35,0,0,0-.19,2.42c0,.08,0,0-.11-.11s-.09-.11-.16-.13,0,0,0,0a.17.17,0,0,1,.1,0l.05,0,0,0,.1,0,.82.27a8.88,8.88,0,0,0,1.58.39,2.82,2.82,0,0,0,.75.08l.74,0c.24,0,.48-.06.72-.07a2.62,2.62,0,0,0,.73-.1c.24-.07.48-.12.73-.17a6.06,6.06,0,0,0,.74-.27,8.67,8.67,0,0,0,1.53-.71,23.45,23.45,0,0,0,6.24-5.47,64.89,64.89,0,0,0,5.65-7.85c.45-.69.87-1.43,1.31-2.15l.65-1.08.56-1c.75-1.36,1.49-2.87,2.2-4.39,1.42-3.06,2.77-6.26,4.08-9.47,2.63-6.44,5.1-13,7.5-19.61s4.72-13.24,7-19.9c1.12-3.32,2.23-6.66,3.29-10l1.55-5,.7-2.45.31-1.14.1-.44c0-.06,0-.08,0,0a2.13,2.13,0,0,0,0,.29v.19a2.75,2.75,0,0,0,0,.4,5.53,5.53,0,0,0,.22,1,5.21,5.21,0,0,0,2.78,3,5,5,0,0,1,3.89-9.22,5.28,5.28,0,0,1,2.82,3.07,6.19,6.19,0,0,1,.24,1.12,3.87,3.87,0,0,1,0,.48v.27c0,.35,0,.44,0,.62s-.07.46-.1.62l-.17.85-.33,1.43-.69,2.68-1.45,5.19c-1,3.44-2,6.85-3,10.25q-3.1,10.22-6.45,20.35c-2.23,6.77-4.54,13.51-7.05,20.24-1.27,3.37-2.57,6.74-4,10.13-.73,1.7-1.49,3.41-2.39,5.17l-.7,1.33-.68,1.22c-.46.8-.89,1.61-1.38,2.42a77.79,77.79,0,0,1-6.46,9.54,36.24,36.24,0,0,1-9.47,8.62,20.55,20.55,0,0,1-3.21,1.63,17.19,17.19,0,0,1-1.73.67l-1.84.5a10.75,10.75,0,0,1-1.88.35c-.64.08-1.28.16-1.92.22l-1.91,0a11.54,11.54,0,0,1-1.88-.15,20.57,20.57,0,0,1-3.59-.73l-1.72-.51-.22-.07-.28-.12-.55-.24c-.37-.16-.74-.33-1.1-.51a15.82,15.82,0,0,1-2.22-1.51,12.36,12.36,0,0,1-2-2,12.49,12.49,0,0,1-1.46-2.41,14.24,14.24,0,0,1-.88-2.46,20.15,20.15,0,0,1-.16-8.11,40.69,40.69,0,0,1,1.6-6.25,97.9,97.9,0,0,1,4.44-10.59c1.6-3.32,3.26-6.52,4.87-9.66s3.2-6.21,4.51-9.13l13.62,6.4h0L195.42,202c-1.6,2.5-3.22,5-4.85,7.44s-3.31,4.9-5,7.34c-.86,1.22-1.72,2.42-2.61,3.62s-1.76,2.41-2.67,3.6c-3.67,4.71-7.47,9.47-12.56,13.67A28,28,0,0,1,158.4,243a18.7,18.7,0,0,1-6.14.88,18.32,18.32,0,0,1-6.09-1.29,31.92,31.92,0,0,1-8.85-5.64c-1.2-1-2.32-2-3.39-3l-1.6-1.48-.78-.71-.44-.35a7.83,7.83,0,0,0-2.1-1.08,12.6,12.6,0,0,0-2.77-.54,21.68,21.68,0,0,0-6.66.63,39.3,39.3,0,0,0-7,2.42,46.27,46.27,0,0,0-6.53,3.73,36.51,36.51,0,0,0-5.62,4.71,20.58,20.58,0,0,0-3.83,5.22h0l-.38.57a7.13,7.13,0,0,1-12.74-6.08l4-12.7,3.81-12.76q3.79-12.76,7.45-25.57c2.42-8.55,4.73-17.12,7-25.69l3.37-12.87,3.2-12.91v-.06a6.11,6.11,0,1,1,11.86,2.94Z"/><path class="cls-2" d="M293.59,190.72l-14.86,45.83-.11.36a5,5,0,0,1-9.51-3.08h0a96.33,96.33,0,0,1,9.56-22.53A65.06,65.06,0,0,1,286,201a37.26,37.26,0,0,1,4.9-4.61,24.73,24.73,0,0,1,6.41-3.66c.64-.2,1.27-.42,1.93-.59a19.33,19.33,0,0,1,2-.38,15,15,0,0,1,2.12-.13l1.08,0,.92.1a31.33,31.33,0,0,1,6.75,1.55c2,.66,3.62,1.26,5.07,1.57a15.31,15.31,0,0,0,2.08.35,13.12,13.12,0,0,0,2,0,22.11,22.11,0,0,0,8.58-3.18,69.82,69.82,0,0,0,8.75-6.14h0l6.64,9A47.61,47.61,0,0,0,335.14,203a54.11,54.11,0,0,0-7.94,10.47,36.63,36.63,0,0,0-2.66,5.75,17.76,17.76,0,0,0-1.17,5.57,5.94,5.94,0,0,0,1,3.83,5,5,0,0,0,.54.59,3.39,3.39,0,0,0,.64.4A3.25,3.25,0,0,0,327,230a9.4,9.4,0,0,0,4.42-1.21,23.38,23.38,0,0,0,4.81-3.4,40.48,40.48,0,0,0,4.37-4.58,54.6,54.6,0,0,0,3.77-5.31,70.45,70.45,0,0,0,9.33-24.67h0l.49-1.32A6.72,6.72,0,0,1,366.87,194l-4.27,12.74c-1.39,4.14-2.7,8.24-3.68,12.21a40.31,40.31,0,0,0-1,5.71,8.45,8.45,0,0,0,.29,3.82c.13.23.09.2.22.31a1.56,1.56,0,0,0,.41.17l.35.08a4.44,4.44,0,0,0,.55,0,11.71,11.71,0,0,0,4.64-.53l1.15-.42a9,9,0,0,0,1.13-.55,10.28,10.28,0,0,0,1.13-.61l1.1-.75.55-.37.52-.45,1-.9c.7-.59,1.31-1.35,2-2a48.2,48.2,0,0,0,6.59-9.9,99.8,99.8,0,0,0,8.11-23.65h0l.07-.25a5.75,5.75,0,0,1,11.1,3Q396.36,202.32,394,213c-1.56,7.14-3.07,14.32-4.52,21.46h0l-.09.4a5,5,0,0,1-9.75-2.14,88.3,88.3,0,0,1,6.4-19.94,38.56,38.56,0,0,1,6.27-9.29,23.46,23.46,0,0,1,10.23-6.48l1.51-.42a13.8,13.8,0,0,1,1.54-.27l1.55-.22c.51,0,1,0,1.53,0s1,0,1.54,0l1.5.14,1.45.15,1.14.14c1.52.19,3,.28,4.42.33a21.48,21.48,0,0,0,4-.34,14.74,14.74,0,0,0,1.74-.44,12,12,0,0,0,1.54-.7,13.61,13.61,0,0,0,1.41-.86,17.27,17.27,0,0,0,1.3-1.15,23.45,23.45,0,0,0,4.45-6.55h0l.77-1a6.74,6.74,0,0,1,11.09,7.6,128.82,128.82,0,0,0-6.48,12.63,70,70,0,0,0-4.42,12.83,34.34,34.34,0,0,0-.72,6.23,17.54,17.54,0,0,0,.14,2.92,11.86,11.86,0,0,0,.27,1.37,6.17,6.17,0,0,0,.36,1.31c.15.41.3.83.44,1.25l.61,1.16a3.15,3.15,0,0,0,.31.57l.39.53.38.54.18.27.06.08a.71.71,0,0,0-.1-.14,1.18,1.18,0,0,0-.28-.22,1,1,0,0,0-.32-.22,1,1,0,0,0-.18-.07l-.12-.07a.88.88,0,0,0-.27-.06.39.39,0,0,0-.22,0s0,0,.11,0a8,8,0,0,0,1.84-.85,29,29,0,0,0,4.83-3.72,59.54,59.54,0,0,0,4.6-4.88,92.29,92.29,0,0,0,8.11-11.14,116.93,116.93,0,0,0,11.83-25.15h0l.36-.77a7.76,7.76,0,0,1,14.33,5.91c-2.07,5.78-3.94,11.72-5.87,17.65s-3.83,11.9-5.88,17.84a312.56,312.56,0,0,1-14,35.24c-.72,1.43-1.39,2.88-2.13,4.31s-1.48,2.86-2.27,4.27c-1.56,2.84-3.22,5.65-5.05,8.4a65.89,65.89,0,0,1-13.47,15.24,38.58,38.58,0,0,1-4.42,3.07c-.79.46-1.55.94-2.37,1.36l-2.51,1.17a19.39,19.39,0,0,1-2.6,1c-.9.27-1.78.59-2.69.82a37.34,37.34,0,0,1-5.55.91l-1.41.11-.7.05-.35,0h-.63a9.32,9.32,0,0,1-3.64-.87,7.57,7.57,0,0,1-1.76-1.08,10,10,0,0,1-.78-.68,9,9,0,0,1-.64-.73,10.36,10.36,0,0,1-2.18-5.61,14.21,14.21,0,0,1,0-2.16,16.39,16.39,0,0,1,.24-1.87,23.07,23.07,0,0,1,2-5.92,37.77,37.77,0,0,1,2.75-4.74,82.16,82.16,0,0,1,13.57-14.69q3.66-3.18,7.47-6.09c2.52-2,5.09-3.84,7.67-5.67s5.23-3.64,7.75-5.39l7.61-5.25,15.17-10.63c5-3.57,10.09-7.12,15.08-10.76l14.95-11q7.47-5.48,14.87-11.07c4.92-3.72,9.86-7.44,14.72-11.23a5.37,5.37,0,1,1,6.61,8.47l-.16.12,0,0L470,241.7l-15.18,10.76-7.62,5.33c-1.29.88-2.52,1.77-3.74,2.66s-2.44,1.79-3.65,2.69c-2.4,1.83-4.72,3.75-7,5.7s-4.42,4-6.52,6.1a71.79,71.79,0,0,0-10.71,13.26,26.48,26.48,0,0,0-1.76,3.35,12.46,12.46,0,0,0-.9,2.86,1.93,1.93,0,0,0-.05.42c0,.14,0,.14,0,.16s0-.48-.62-1.33a2.37,2.37,0,0,0-.27-.28,2.42,2.42,0,0,0-.33-.31,4.72,4.72,0,0,0-.77-.48,3.83,3.83,0,0,0-1.41-.36h0l.23,0,.45,0,.91-.06c4.85-.32,9.44-2.4,13.78-5.39a55,55,0,0,0,11.66-11.87c1.74-2.3,3.32-4.77,4.86-7.28.76-1.27,1.45-2.58,2.18-3.87s1.37-2.64,2-4l1.89-4.08,1.78-4.14,1.64-4.21,1.57-4.26c2.05-5.69,3.78-11.52,5.44-17.39,3.23-11.78,5.79-23.73,8.1-36l14.69,5.14h0a208.17,208.17,0,0,1-16.21,25.76c-1.51,2.05-3.09,4-4.73,6s-3.32,3.9-5.1,5.77a75.07,75.07,0,0,1-5.68,5.42,38.81,38.81,0,0,1-6.86,4.9,17.09,17.09,0,0,1-4.87,1.86,14.62,14.62,0,0,1-1.7.21,12,12,0,0,1-2-.14c-.38-.08-.77-.18-1.15-.3l-.56-.19-.58-.28a12.58,12.58,0,0,1-1.11-.67,10.64,10.64,0,0,1-.94-.84l-.44-.45a2,2,0,0,1-.21-.28l-.35-.47-.68-.94-.66-1c-.22-.32-.38-.68-.57-1-.36-.69-.73-1.38-1.07-2.07l-.78-2.18a14.19,14.19,0,0,1-.59-2.19,21.88,21.88,0,0,1-.43-2.2,35.77,35.77,0,0,1-.32-4.33,44.35,44.35,0,0,1,.69-8.24,103,103,0,0,1,3.95-15c1.58-4.81,3.32-9.47,4.92-14.15l11.86,6.63h0a46.25,46.25,0,0,1-8.5,8.13,24,24,0,0,1-11.89,4.37,42.48,42.48,0,0,1-11.19-.73L411.6,206c-.41-.07-.65-.09-1-.14l-.94-.13c-.31,0-.61,0-.92,0l-.92,0-.89.1a5.41,5.41,0,0,0-.89.11l-.85.21a13.41,13.41,0,0,0-6.23,3.82,27.73,27.73,0,0,0-4.66,6.94,60.25,60.25,0,0,0-4.78,17.63l-9.84-1.75h0c1.21-7.29,2.48-14.52,3.8-21.77s2.68-14.48,4.12-21.72L398.79,192h0a152.79,152.79,0,0,1-10.6,25.2A64.34,64.34,0,0,1,380,228.85c-.88.88-1.68,1.8-2.64,2.62l-1.45,1.23-.73.61-.81.55-1.6,1.1c-.54.37-1.16.65-1.74,1a15.15,15.15,0,0,1-1.81.88l-1.92.72a21.34,21.34,0,0,1-8.27,1c-.37,0-.67,0-1.09-.08l-1.25-.21a11.59,11.59,0,0,1-2.67-.95,10.19,10.19,0,0,1-4.35-4.22,13.47,13.47,0,0,1-1.53-4.82,25.92,25.92,0,0,1-.2-4.14,50.56,50.56,0,0,1,.8-7.25c.76-4.59,1.79-8.92,2.68-13.21s1.75-8.49,2.23-12.65l13.17,3.15v0a99.39,99.39,0,0,1-13.5,27.38,60.43,60.43,0,0,1-10.64,11.51,35.75,35.75,0,0,1-7.05,4.48c-.64.32-1.37.58-2.05.86a22.57,22.57,0,0,1-2.25.66,16.14,16.14,0,0,1-5,.42,12.67,12.67,0,0,1-5.32-1.61,13,13,0,0,1-4.15-3.67,13.55,13.55,0,0,1-2.26-4.85,17.28,17.28,0,0,1-.47-4.82,28.86,28.86,0,0,1,1.66-8.36A47.93,47.93,0,0,1,319,209a71.73,71.73,0,0,1,8.76-12.62A74.28,74.28,0,0,1,339,185.64a5.59,5.59,0,0,1,6.95,8.75l-.31.25h0a81.57,81.57,0,0,1-10.32,7l-1.4.79c-.49.25-1,.48-1.51.72a28.51,28.51,0,0,1-3.13,1.31,23.74,23.74,0,0,1-3.41,1l-1.78.38c-.63.08-1.26.14-1.89.19a24.09,24.09,0,0,1-3.8,0,27.17,27.17,0,0,1-3.63-.64c-1.19-.26-2.2-.62-3.24-.95l-2.74-1a20.4,20.4,0,0,0-4.51-1.14l-.51-.08h-.38a3.92,3.92,0,0,0-.76,0,5.92,5.92,0,0,0-.81.13c-.28.07-.56.17-.85.24a19.74,19.74,0,0,0-7.2,5.34,54,54,0,0,0-6.23,8.5,85.72,85.72,0,0,0-8.77,19.93h0l-9.63-2.72,11.74-46.72a6.62,6.62,0,1,1,12.85,3.23C293.68,190.43,293.63,190.59,293.59,190.72Z"/><path class="cls-2" d="M204,232.74a99.61,99.61,0,0,1,6.87-18,66.68,66.68,0,0,1,11.11-16,52.67,52.67,0,0,1,16-11.55,58.31,58.31,0,0,1,18.82-5.12l.3,0,.15,0,.25,0,1,0a10,10,0,0,1,2.14.27,9.84,9.84,0,0,1,3.87,1.9,13.26,13.26,0,0,1,4,5.77,27,27,0,0,1,1.38,10.9,46,46,0,0,1-5.76,19.27,47.31,47.31,0,0,1-9.39,12c-.62.6-1.3,1.12-1.95,1.68l-.5.41-.58.42-1.17.83a9.64,9.64,0,0,1-1.24.78l-1.31.73c-.89.47-1.89.82-2.85,1.21a21,21,0,0,1-6.41,1,20.87,20.87,0,0,1-9.47-2.4c-.48-.24-1-.53-1.44-.83-.24-.14-.49-.33-.73-.49l-.4-.29-.2-.16-.32-.27a6.75,6.75,0,0,1,9.16-9.91l-.1-.08v0l.05,0a1.36,1.36,0,0,0,.17.17,4.17,4.17,0,0,0,.45.36,8,8,0,0,0,1,.66,7.4,7.4,0,0,0,2.26.7,7.32,7.32,0,0,0,2.45-.11c.43-.16.87-.22,1.32-.42l.68-.3a3.45,3.45,0,0,0,.69-.35l.7-.42.35-.2.38-.28c.51-.38,1.05-.73,1.53-1.14a36.59,36.59,0,0,0,2.88-2.56,34.71,34.71,0,0,0,4.79-6.11,33.75,33.75,0,0,0,5-14.62,22.5,22.5,0,0,0,0-3.67,13,13,0,0,0-.65-3.13,4.15,4.15,0,0,0-.9-1.59c0-.09-.07,0-.08-.08s0,0,0,0,0,0-.09,0a.11.11,0,0,1-.08,0h0l-.13,0-.25,0A47.57,47.57,0,0,0,242.19,196a40.32,40.32,0,0,0-12.62,9.69c-7.1,8.09-11.22,18.82-12.95,29.79v0a6.48,6.48,0,0,1-12.81-2A7.31,7.31,0,0,1,204,232.74Z"/><path class="cls-2" d="M194.69,162a31.88,31.88,0,0,0,3.7-1.32c.66-.28,1.32-.58,2-.89s1.36-.65,1.91-.94a5.82,5.82,0,1,1,5.57,10.23,6.62,6.62,0,0,1-.91.4l-.18.06c-.93.31-1.71.53-2.57.77s-1.68.46-2.55.66a38.85,38.85,0,0,1-5.6.94,5,5,0,0,1-1.71-9.81Z"/><path class="cls-3" d="M103.19,131.22q-2-43.14-2-85"/><path class="cls-4" d="M92.18,131.73Q90.46,89,90.69,46.23a10.5,10.5,0,0,1,21,0q.27,42.27,2.51,84.49a11,11,0,0,1-22,1.16Z"/><path class="cls-4" d="M93.59,50.8c.43-.44.63-.62.92-.9l.79-.73c.52-.47,1-.92,1.57-1.37,1-.89,2.12-1.72,3.21-2.53a59.44,59.44,0,0,1,7-4.47,46.1,46.1,0,0,1,8.12-3.45,35.56,35.56,0,0,1,9.5-1.61A29.67,29.67,0,0,1,135,37.28a31.43,31.43,0,0,1,8.94,4.85,40.43,40.43,0,0,1,6.5,6.6,39.45,39.45,0,0,1,4.8,8,33.54,33.54,0,0,1,2.54,9.39,31.46,31.46,0,0,1-.38,9.83,33.54,33.54,0,0,1-8.83,16.72,35.57,35.57,0,0,1-15.84,9.52,34.85,34.85,0,0,1-18.49.06h0l9-15.33q9.23,9.13,18,18.61,4.42,4.74,8.74,9.56c2.89,3.23,5.71,6.41,8.61,9.81a10.51,10.51,0,1,1-16,13.63c-.11-.12-.21-.25-.31-.38l-.06-.07c-2.46-3.21-5.12-6.53-7.74-9.77s-5.31-6.49-8-9.69q-8.08-9.63-16.55-18.88a9.3,9.3,0,0,1,8.67-15.4l.32.07h0a16.36,16.36,0,0,0,8.54-.24,16.75,16.75,0,0,0,7.22-4.62,14.27,14.27,0,0,0,3.63-7.22,12.76,12.76,0,0,0-1.09-7.52,19.61,19.61,0,0,0-2.37-3.66A20,20,0,0,0,131.69,58a9.42,9.42,0,0,0-6.3-1.93,19.59,19.59,0,0,0-8.33,2.83,38.71,38.71,0,0,0-4.44,3c-.71.57-1.43,1.15-2.11,1.75l-1,.91-.46.44-.29.3-.16.16a10.5,10.5,0,1,1-15-14.65Z"/><path class="cls-4" d="M167.13,133.23c.46-13.65.42-27.42.3-41.32s-.31-27.94.09-42.18a10.5,10.5,0,0,1,21,.39v0c-.14,13.61.29,27.43.65,41.38s.66,28.05.43,42.25a11.23,11.23,0,1,1-22.46-.36Z"/><path class="cls-4" d="M221.33,62.52c-14.58.29-29-.32-43.32-1.43a10,10,0,0,1,1-19.88h0c13.87.36,27.68.23,41.29-.74a11,11,0,1,1,1.56,22,4.53,4.53,0,0,1-.52,0Z"/><path class="cls-4" d="M178.84,83.3,219.43,83a11.35,11.35,0,0,1,.18,22.69c-.15,0-.33,0-.47,0l-40.57-1.36a10.5,10.5,0,0,1,.27-21Z"/><path class="cls-4" d="M185.63,122.5l33.47-2a11.42,11.42,0,1,1,1.33,22.8l-.62,0-33.53.12a10.5,10.5,0,0,1-.65-21Z"/><path class="cls-4" d="M238.82,132.63c.79-7.14.76-14.28.93-21.41l.42-21.41.32-21.41L240.71,47a8.81,8.81,0,0,1,15.37-5.79l.3.34,36.51,41.14a11.78,11.78,0,1,1-17.62,15.64c-.28-.32-.55-.66-.8-1L242.62,52.48,258.29,47l.12,21.42.24,21.41.33,21.41c.14,7.13.08,14.27.84,21.41a10.56,10.56,0,0,1-21,2.24A11.58,11.58,0,0,1,238.82,132.63Z"/><path class="cls-4" d="M305.77,131.43,306,51.85l18.77,6.28L292.39,99.57a10.5,10.5,0,0,1-16.55-12.93L308.21,45.2a10.51,10.51,0,0,1,18.77,6v.26L330,131a12.1,12.1,0,1,1-24.19.91C305.78,131.77,305.77,131.58,305.77,131.43Z"/><path class="cls-4" d="M401.74,58.1c-1-.18-2-.39-3-.5s-2-.2-2.95-.19a28.63,28.63,0,0,0-5.8.44,32.36,32.36,0,0,0-10.73,4,42.62,42.62,0,0,0-19.14,29.61c-.14,1-.2,1.93-.26,2.88l0,1.39.08,1.57a29,29,0,0,0,.23,3.12,26.77,26.77,0,0,0,.45,3,27.56,27.56,0,0,0,4,10.4,19.35,19.35,0,0,0,7.42,6.64,27.15,27.15,0,0,0,10.74,2.7,58.65,58.65,0,0,0,12.61-.73,35.27,35.27,0,0,0,11.19-3.7,21.44,21.44,0,0,0,7.5-6.56,16.54,16.54,0,0,0,1.88-4.08,17.89,17.89,0,0,0,.52-2.19c.06-.37.06-.76.11-1.14l.06-.56a1.85,1.85,0,0,0,0-.39l0-.46a106.84,106.84,0,0,0,.14-13.66,33.74,33.74,0,0,0-.87-5.64,19.65,19.65,0,0,0-1.7-4.32,14.6,14.6,0,0,0-6-5.66l-.36-.2a12.18,12.18,0,1,1,11.89-21.27,11.68,11.68,0,0,1,1.12.7L423,54.89c.7.53,1.41,1,2.09,1.62A38.84,38.84,0,0,1,429,60.3a36.08,36.08,0,0,1,6.12,9.15l1.08,2.48c.33.83.57,1.65.84,2.49a21.9,21.9,0,0,1,.7,2.47l.56,2.46a63.44,63.44,0,0,1,.94,9.31,127,127,0,0,1-.84,16.46l-.05.48c0,.16,0,.31-.06.55l-.18,1.3c-.14.87-.24,1.73-.42,2.59a38.92,38.92,0,0,1-6.38,14.39A42.52,42.52,0,0,1,416,137.16a57.65,57.65,0,0,1-17.45,5.33,77.05,77.05,0,0,1-8.62.77l-2.14.08c-.73,0-1.48,0-2.22-.05l-2.22-.07-1.11,0c-.38,0-.76-.09-1.14-.13A47.21,47.21,0,0,1,363,138a39.1,39.1,0,0,1-14.64-13.41,48.3,48.3,0,0,1-6.8-17.54,43,43,0,0,1-.65-4.43,44.11,44.11,0,0,1-.34-4.4c0-.73-.08-1.44-.09-2.2l0-2.37c.08-1.57.19-3.12.4-4.64a60.62,60.62,0,0,1,4.92-17.22,63.09,63.09,0,0,1,9.46-15.05A56.4,56.4,0,0,1,369,44.88a51.51,51.51,0,0,1,8.32-4.12,54.74,54.74,0,0,1,8.94-2.6,69.25,69.25,0,0,1,18.31-.86,10.52,10.52,0,0,1-1.59,21c-.36,0-.72-.07-1.07-.13Z"/><path class="cls-4" d="M443.5,41.27c5.78.3,11.54,0,17.31-.17l17.31-.54q17.29-.59,34.6-1.31a11.39,11.39,0,0,1,1,22.75h-.46q-17.31,0-34.63.25l-17.31.23c-5.77.1-11.54.06-17.3.62a11,11,0,0,1-2.12-21.81A11.12,11.12,0,0,1,443.5,41.27Z"/><path class="cls-4" d="M465.8,131.29l-.1-2.7,0-2.56,0-5,.05-9.88q.09-9.85.36-19.67t.71-19.68c.31-6.57.68-13.16,1.23-19.83a10.5,10.5,0,0,1,20.95,1.41v0c-.33,6.28-.51,12.67-.62,19.07s-.15,12.84-.13,19.27.08,12.86.2,19.28l.24,9.6.17,4.74.11,2.31.13,2.16,0,.3a11.64,11.64,0,0,1-23.23,1.47C465.81,131.53,465.8,131.39,465.8,131.29Z"/><path class="cls-4" d="M591.5,60.78l-50.07-.68a10.5,10.5,0,0,1,.07-21l50.08-.35a11,11,0,0,1,.15,22Z"/><path class="cls-4" d="M543.25,79.68l47.32.58a11,11,0,0,1-.27,21.9h-.21l-47.3-1.48a10.5,10.5,0,0,1,.46-21Z"/><path class="cls-4" d="M542.87,124.07q26.31-2.14,52.77-2.34h0a11.44,11.44,0,0,1,.16,22.88h-.41q-25.57-.73-51.18.43h0a10.5,10.5,0,0,1-1.33-21Z"/><path class="cls-4" d="M552.14,48.73l.22,85a12.11,12.11,0,1,1-24.21.06v-.46l3-84.92a10.5,10.5,0,0,1,21,.34Z"/><path class="cls-4" d="M720.61,103.09c-2.5,4.67-5,9.45-7.34,14.19l-3.5,7.09-1.65,3.46c-.53,1.13-1,2.26-1.37,3.07l-.31.76-.39.93a18.29,18.29,0,0,1-1,1.91c-.19.32-.35.63-.58,1s-.47.67-.71,1-.48.64-.78,1-.62.67-.94,1a16.55,16.55,0,0,1-5.17,3.5A15.2,15.2,0,0,1,689,143a14.57,14.57,0,0,1-7.84-3.81,20,20,0,0,1-1.39-1.52,12.42,12.42,0,0,1-1.08-1.59,14.79,14.79,0,0,1-1.45-3.21,11.11,11.11,0,0,1-.4-1.49c-.1-.48-.2-1-.27-1.45l-.11-.59c0-.28-.2-1.07-.32-1.66-1-5.06-2.19-10.37-3.32-15.59q-3.42-15.73-7-31.49l-3.63-15.73a151.65,151.65,0,0,0-4.16-15.59,11.72,11.72,0,1,1,22.15-7.68,12,12,0,0,1,.57,2.46,159.05,159.05,0,0,0,3,15.92l3.48,15.8,7.06,31.58c1.17,5.3,2.33,10.51,3.47,16,.14.73.27,1.26.44,2.3l.24,1.4a3.12,3.12,0,0,0-.06-.45c0-.18-.09-.27-.15-.52a7.11,7.11,0,0,0-.62-1.37,7.44,7.44,0,0,0-1.24-1.53,7.58,7.58,0,0,0-4.27-2.06,7.2,7.2,0,0,0-3.91.47,6.16,6.16,0,0,0-1.89,1.19,2.16,2.16,0,0,0-.25.27c-.07.09-.11.11-.16.17l-.13.18c0,.06,0,.06-.08.09s-.06.15-.07.11h0s0,0,0,0l.06-.15c.58-1.72,1.11-3.09,1.64-4.43l1.59-3.94,3.22-7.6,6.52-15a12.2,12.2,0,1,1,22.38,9.74c-.13.29-.27.57-.42.85Z"/><path class="cls-4" d="M758.76,49.16q-7.35,32.49-14.84,65L742,122.25l-1,4.1-1,4.18-.27,1.06c-.16.58-.33,1.18-.51,1.77l-.28.88c-.15.4-.32.8-.49,1.19a18.33,18.33,0,0,1-1.3,2.35,15.77,15.77,0,0,1-4.77,4.78,17.84,17.84,0,0,1-2.13,1.1,15.39,15.39,0,0,1-2.71.8,13.08,13.08,0,0,1-6.25-.38,14.78,14.78,0,0,1-2.62-1.13,18,18,0,0,1-2-1.37,17.69,17.69,0,0,1-1.39-1.33c-.21-.22-.46-.49-.61-.67l-.45-.59c-.29-.39-.59-.81-.84-1.2l-.59-1a18,18,0,0,1-.92-1.92l-.19-.45c-.05-.14-.14-.35-.15-.4l-.18-.49-.35-1-.7-2L699.08,99a10.5,10.5,0,0,1,19.7-7.27l0,.11,11.76,30.92.74,1.93.36,1,.19.48c0,.12,0,.06,0,.08v0s0,.1,0,0l-.08-.12a2.5,2.5,0,0,0-.24-.36l-.39-.47a8.31,8.31,0,0,0-1.78-1.37,7.35,7.35,0,0,0-1.68-.73,7.75,7.75,0,0,0-2.08-.38,7.84,7.84,0,0,0-2.11.13,7.1,7.1,0,0,0-1.72.5,5.81,5.81,0,0,0-1.21.63,6.15,6.15,0,0,0-1.92,1.79,4.18,4.18,0,0,0-.29.52.94.94,0,0,0-.1.23.4.4,0,0,1,0-.11.93.93,0,0,1,0-.24l.22-1,.87-3.92.87-4,1.72-8.1q6.83-32.46,13.43-65.09h0a11.92,11.92,0,1,1,23.35,4.76C758.8,49,758.77,49.1,758.76,49.16Z"/><path class="cls-4" d="M808.68,60.48a15.7,15.7,0,0,0-8.18,2A27,27,0,0,0,792.71,69a38,38,0,0,0-8.6,20.34c-.83,7.81.07,15.86,3.19,21.93a19.48,19.48,0,0,0,2.64,4.06,14.8,14.8,0,0,0,1.45,1.49c.24.23.45.34.66.53l.24.15.12.08.27.16A45.61,45.61,0,0,0,803.36,122a35.06,35.06,0,0,0,10.83,1.31,16.24,16.24,0,0,0,8.22-2.39,11.68,11.68,0,0,0,2.73-2.53c.19-.27.39-.53.59-.79s.36-.59.55-.87l1.33-2.44a54,54,0,0,0,4.06-11,59.25,59.25,0,0,0,1.79-11.63A38.49,38.49,0,0,0,832.64,81c-.11-.38-.17-.8-.29-1.15l-.37-1a13,13,0,0,0-.78-1.77l-.1-.21-.11-.15-.22-.29-.19-.31a2.93,2.93,0,0,0-.29-.42c-.6-.8-1.21-1.61-1.83-2.35a39.81,39.81,0,0,0-3.68-4A16.71,16.71,0,0,0,823.12,68a2.35,2.35,0,0,0-.33-.22,1.09,1.09,0,0,0-.24-.14.12.12,0,0,0-.06,0s0,0,0,0l.15.1.19.09.21.1.14.06.44.18a12.31,12.31,0,0,1,8.5-23.1l.54.22.24.1.41.19.58.3c.4.21.61.34.92.52s.49.31.75.47l.67.45c.42.3.83.6,1.18.88s.73.57,1.05.85a40.59,40.59,0,0,1,3.5,3.35A64.54,64.54,0,0,1,847.38,59c.81,1.1,1.55,2.2,2.29,3.31.16.23.42.65.65,1.06l.69,1.2.67,1.21.33.61.26.59A36.3,36.3,0,0,1,854,71.71l.66,2.33c.2.77.31,1.51.46,2.27a61,61,0,0,1,.6,17.16,81.64,81.64,0,0,1-3.21,15.87,78.25,78.25,0,0,1-6.3,15c-.73,1.21-1.41,2.38-2.18,3.62l-1.41,2L841.06,132a32.65,32.65,0,0,1-7.83,6.58A33.64,33.64,0,0,1,824,142.3a40.37,40.37,0,0,1-9.23,1.16,57.14,57.14,0,0,1-16.8-2.52,68,68,0,0,1-15.05-6.55l-.49-.29-.61-.4c-.4-.27-.82-.55-1.2-.83-.69-.55-1.44-1.11-2.05-1.69a33.2,33.2,0,0,1-3.39-3.57,41,41,0,0,1-5-7.66,51.22,51.22,0,0,1-5-16.36l-.28-2.06-.15-2.06-.14-2,0-2,0-2,.09-2c.07-1.34.12-2.66.3-4.06a60,60,0,0,1,12.24-30.83,47.15,47.15,0,0,1,13.24-11.74,39,39,0,0,1,8.72-3.78,18.54,18.54,0,0,1,2.39-.59l2.43-.47c1.64-.22,3.32-.29,5-.39a10.52,10.52,0,0,1,1.25,21,9.61,9.61,0,0,1-1.2,0Z"/><path class="cls-4" d="M915.37,142.2,881.6,96.82,881,96a10.29,10.29,0,0,1,10.44-16.19h0c6.65,1.3,15,.59,20.1-2.15a11.49,11.49,0,0,0,5.27-5.18,12.76,12.76,0,0,0,1.09-3.8,18.38,18.38,0,0,0,.17-2.29c0-.2,0-.41,0-.61v-.53a8,8,0,0,0-.07-.88,6.89,6.89,0,0,0-1-2.77,7.92,7.92,0,0,0-2.28-2.33,21.32,21.32,0,0,0-9-3.19,39.7,39.7,0,0,0-11.21,0,24.9,24.9,0,0,0-5.25,1.29,15.18,15.18,0,0,0-2.17,1,5.35,5.35,0,0,0-1.34,1,9.26,9.26,0,0,1-14.39-11.67,9.4,9.4,0,0,1,2.1-1.9l1.54-1a29.13,29.13,0,0,1,4.57-2.45,40.36,40.36,0,0,1,4.23-1.54,61.69,61.69,0,0,1,8.09-1.84,58.53,58.53,0,0,1,16.15-.4,45.34,45.34,0,0,1,8.33,1.75,34.12,34.12,0,0,1,8.42,3.92,26.41,26.41,0,0,1,7.46,7.21,25.4,25.4,0,0,1,4,9.91,25.05,25.05,0,0,1,.33,2.53l.06.63,0,.55c0,.37,0,.73,0,1.1a36.89,36.89,0,0,1-.13,4.56,31.83,31.83,0,0,1-2.3,9.45,29.39,29.39,0,0,1-5.47,8.53,33.1,33.1,0,0,1-7.58,6.09,46.59,46.59,0,0,1-16.53,5.66,57.76,57.76,0,0,1-16.72.14h0l9.83-17,37.81,42.08a13.13,13.13,0,0,1-19.53,17.54A11.16,11.16,0,0,1,915.37,142.2Z"/><path class="cls-4" d="M866.05,134.65c-1.42-29.34-1.77-58.75-.89-88.13a10.5,10.5,0,0,1,21,.46c-.41,28.81.39,57.65,2.22,86.42a11.18,11.18,0,0,1-22.31,1.43A1.09,1.09,0,0,1,866.05,134.65Z"/><path class="cls-4" d="M956.8,133.33l-3.14-81.75a10.5,10.5,0,0,1,21-1.2L980.81,132a12,12,0,1,1-24,1.82C956.82,133.65,956.81,133.46,956.8,133.33Z"/><path class="cls-4" d="M1016.86,60.05c-3.5,2.65-6.8,5.52-10,8.46s-6.37,5.91-9.48,8.9-6.13,6.06-9.08,9.14-5.76,6.25-8.45,9.43h0l-.92-14.33c7.83,7.16,15.15,14.69,22.18,22.38s13.75,15.6,20.31,23.59a11.41,11.41,0,0,1-17.64,14.47,1.81,1.81,0,0,1-.18-.23l0,0c-6.12-7.93-12.38-15.72-18.85-23.26S971.55,103.75,964.56,97l-.15-.15a10.51,10.51,0,0,1-.78-14.18h0c2.94-3.64,6-7.09,9-10.51s6.16-6.72,9.25-10,6.24-6.52,9.39-9.71,6.27-6.41,9.22-9.8l0,0a12,12,0,0,1,18.14,15.78A13.12,13.12,0,0,1,1016.86,60.05Z"/><path class="cls-5" d="M549.42,150.58c21.13-.21,100,1.9,157.51,3.45,41.43,1.1,65.19,1.73,71.86,1.73,8.22,0,52.58-1,124.64-2.69,58.82-1.37,117.2-3.8,126.58-3.8l7.43.17,2.93-17.27,4.49-30-.69-12.43,4.66-11L1044,74.5l1.38-2.07-3.62-3.8.69-2.93-4.15-5.55c-9.7,0-60.53,1.17-137,2.94-53.8,1.25-114.78,2.67-122.55,2.67-5.79,0-36.71-.83-69.45-1.7-61.5-1.65-138-3.71-160.8-3.48L390.72,61.67c-12.46-.59-121.29-1.45-150-.55C216.06,61.9,136.59,61,64,59.31l-12.6,4.83-6,4.67,1.56,2.93-8.46,7.77L43.6,90l-6.74,4.67L40,102l-2.24,2.41,3.8,7.77-3.11,2.08.52,4.14-2.42,1.21,1.21,2.93-1.38,2.94L47,148.84c61.64,1.46,166.75,3.18,196.59,2.24,27.59-.87,134.36.09,142.87.49Z"/></g></g></svg>