<svg id="Layer_1" data-name="Layer 1" xmlns="http://www.w3.org/2000/svg" viewBox="0 0 1105.38 334.62"><defs><style>.cls-1,.cls-3{fill:none;stroke-linejoin:round;}.cls-1{stroke:#7ad2f4;stroke-width:10px;}.cls-1,.cls-2,.cls-3{stroke-linecap:round;}.cls-2{fill:#fff;stroke-miterlimit:10;}.cls-2,.cls-3{stroke:#010101;stroke-width:21px;}</style></defs><path class="cls-1" d="M118.27,139.86C106.53,188.2,90.39,242.94,90.39,242.94c7.51-13.47,34.37-25.84,45.24-15.54,10.61,10,19,19.4,37.38-3.37,11.71-14.51,20.46-32.89,20.46-32.89-6.74,14.5-23.66,38.85-11.23,43.51s21.55-5.22,30.13-20.46,27.67-75.68,26.77-76.06"/><path class="cls-1" d="M287.22,188.89l-13.29,46.28c4.2-15.11,16.77-39.13,30.21-38.16,11,.79,15.54,11.22,38-6.74-16.06,10.88-29.7,34.19-20.37,42.48s30.56-9.15,38.5-40.23c-4.32,19.34-13.3,39.88-1.55,41.26s25.2-9.66,34.53-43.33c-4.66,21.41-8.64,43.16-8.64,43.16,4.32-25.21,14.87-34.62,27.63-32.46,12.26,2.07,19.17.52,26.59-10.53-9,19.68-15.26,36.91-6.22,47.83,5,6,26.77-14.16,40.93-46.8C464.37,225.5,448,298,409.47,298.71c-6.4.11-5.53-17.1,33.32-43.86s84.43-60.78,84.43-60.78"/><path class="cls-1" d="M210.3,234.13c4.15-18.91,15.91-44.31,47.4-47.31,10.88-1,10.94,27.92-8.81,42.65-10.18,7.59-18.13.26-18.13.26"/><path class="cls-1" d="M195.37,167a45.71,45.71,0,0,0,9.15-2.76"/><path class="cls-2" d="M103.19,131.22q-2-43.14-2-85"/><path class="cls-3" d="M101.18,58.06s24.16-25.29,41.61-2.94c15.37,19.69-4.55,43.88-26.24,38.16,18.82,19.51,33.84,38.16,33.84,38.16"/><path class="cls-3" d="M178.36,133.51c.75-29.8-.87-57.92-.35-83.57"/><path class="cls-3" d="M220.83,51.5c-13.43.6-27.57.42-42.3-.35"/><line class="cls-3" x1="178.71" y1="93.8" x2="219.28" y2="94.32"/><line class="cls-3" x1="185.96" y1="132.99" x2="219.45" y2="131.96"/><polyline class="cls-3" points="249.32 132.65 249.5 47.01 283.68 90"/><polyline class="cls-3" points="318.22 132.82 316.49 51.67 282.82 91.21"/><path class="cls-3" d="M403.17,47.7c-34-4.66-53.36,26.59-53,48.34s11.74,37.82,37.29,37.3S426.3,120.13,427.51,105c1.3-16.22,2.07-32.11-12.95-41.26"/><line class="cls-3" x1="443.74" y1="52.19" x2="512.98" y2="50.63"/><path class="cls-3" d="M477.41,130.58c-.59-9.59-.75-52,1-77.87"/><line class="cls-3" x1="591.54" y1="49.77" x2="541.47" y2="49.6"/><line class="cls-3" x1="543.02" y1="90.17" x2="590.33" y2="91.21"/><path class="cls-3" d="M543.54,134.55c17-1.09,34.32-1.58,52-1.38"/><line class="cls-3" x1="541.64" y1="48.56" x2="540.26" y2="133.51"/><path class="cls-3" d="M709.64,97.77s-11.22,23.14-13.47,29.52-8,6-8.63,1.21S670,46.41,669.41,46.66"/><path class="cls-3" d="M747.11,46.66s-17.27,80.46-18.48,83.74-4.66,5.57-6.9-.26c-3.37-8.73-12.78-34.7-12.78-34.7"/><path class="cls-3" d="M808.83,50c-17.35-.26-32.76,18.38-34.44,39.62s7.38,32.85,13.08,36.26c11.91,7.12,36.74,14.12,47.78-3.63,10-16,13-41.16,4.92-53-7.51-10.93-12.3-12.69-12.3-12.69"/><path class="cls-3" d="M925.29,134.89,889.73,90.17c13.64,2.25,38.95-1.37,37.64-25.21C926.16,43,890.94,44.24,880.4,52"/><path class="cls-3" d="M877.21,134q-2.48-44.13-1.56-87.28"/><line class="cls-3" x1="968.81" y1="132.65" x2="964.14" y2="50.98"/><path class="cls-3" d="M1008.69,51.32c-14.52,13.59-27.54,26.55-37,38,13,12.23,26.68,27.72,40.75,45.41"/></svg>